<svg width="53" height="53" viewBox="0 0 53 53" fill="none" xmlns="http://www.w3.org/2000/svg"><g clip-path="url(#clip0_3_31)"><path d="M45.4497 42.0665C44.2351 41.0816 44.7077 38.9064 43.4467 37.8332C44.668 30.4021 41.245 23.8522 37.164 19.6542C33.7389 16.1319 34.8431 12.7045 34.8431 9.73875C34.8431 4.99967 32.8975 0 27.0035 0C20.7031 0 18.9762 5.25583 18.9144 8.25475C18.7642 15.4583 20.3697 17.331 16.154 22.5736C11.194 28.7415 10.4631 34.8939 11.5827 38.1578C11.0593 38.7673 10.3527 39.443 9.03208 40.0018C5.38392 41.5918 8.05821 44.2528 7.049 46.1409C6.76192 46.6775 6.625 47.2385 6.625 47.7751C6.625 49.4313 7.94117 50.8645 10.3328 50.6503C13.5592 50.3633 16.536 52.6489 18.4617 52.6489C20.1621 52.6489 21.5577 51.6816 22.207 50.35C25.2479 49.6014 29.002 49.6963 32.0407 50.4803C32.5862 52.0062 34.0657 53 35.711 53C39.3127 53 40.0062 48.9168 44.138 47.5344C45.6264 47.0375 46.375 45.5933 46.375 44.2484C46.375 43.3871 46.068 42.5678 45.4497 42.0665ZM25.2501 18.9563C24.5456 18.9563 23.9626 18.3866 23.0417 17.702C21.8757 16.8363 20.6899 16.3372 20.7031 15.4274C20.7031 14.8025 21.5401 14.6103 22.6222 13.9235C23.7838 13.1882 24.2365 12.4417 25.3804 12.4417C26.5508 12.4417 26.9041 13.0336 28.4941 13.7204C30.0576 14.3983 31.1463 14.6633 31.1463 15.4274C31.1463 16.2114 29.51 16.7723 28.5891 17.3442C27.2354 18.179 26.5397 18.9563 25.2501 18.9563ZM28.927 7.43987C30.8747 7.75125 31.0933 11.1742 30.1614 12.8591L29.3775 12.5389C29.7838 11.3398 29.7772 9.36554 28.4168 9.23967C27.5534 9.16017 26.9969 10.2997 26.8776 11.2757C26.5397 11.1344 26.171 11.0328 25.7227 10.9953C25.8596 8.957 27.1757 7.15942 28.927 7.43987ZM21.412 8.17083C22.9048 7.79983 23.786 9.53558 23.7926 11.3398L23.108 11.7594C23.0152 11.0019 22.6774 9.7785 21.8294 10.0391C20.9218 10.3217 21.0697 12.4307 21.5754 12.8635L20.8997 13.239C19.9722 11.6777 19.9744 8.52858 21.412 8.17083ZM16.7414 50.6658C12.4064 48.6937 10.9335 49.142 10.1053 49.142C8.38946 49.142 7.82854 47.8634 8.47337 46.6532C9.02104 45.6264 8.851 44.5509 8.71629 43.6875C8.50871 42.3647 8.47117 41.934 9.77188 41.3643C11.5717 40.6002 12.3711 39.6175 12.9673 38.8821C14.6413 36.8129 16.3306 40.068 17.7153 42.9675C18.614 44.8468 20.3829 45.7986 20.9284 47.8811C21.4297 49.8045 19.3605 51.8583 16.7414 50.6658ZM32.171 46.5274C29.1147 48.0136 25.2214 48.696 22.3086 47.1877C21.878 45.9444 21.189 45.1405 20.447 44.3323C21.6372 44.0187 22.5206 42.5347 21.4628 41.0441C20.3343 39.4519 18.0288 38.3411 15.699 36.5391C13.5194 34.8541 12.8304 30.7002 15.7984 26.0583C14.352 30.1702 15.1978 33.9598 15.9243 35.044C16.0745 32.8622 16.2467 29.2185 19.228 24.8526C20.7318 22.6487 20.7539 19.7381 20.787 17.9184L22.1562 18.8547C23.1632 19.599 24.0068 20.4182 25.217 20.4182C27.0057 20.4182 27.995 19.3892 29.373 18.5345C29.9119 18.2033 30.7267 17.8676 31.4113 17.4017C32.5597 22.8695 37.3164 29.4459 37.5836 33.1912C38.69 30.9122 37.27 25.4312 37.27 25.4312C39.1295 28.2689 39.2774 30.634 39.3591 33.5357C40.6598 34.068 42.0555 35.4548 42.1836 37.2811L41.6425 37.2192C41.3643 35.1898 35.8854 32.2085 35.393 36.029C32.765 36.4287 33.7212 40.5914 33.1912 43.29C32.9483 44.5244 32.4978 45.5005 32.171 46.5274ZM42.8726 46.4368C40.6974 47.276 39.2288 49.0581 38.2196 50.1645C36.2763 52.2977 33.7058 51.2753 33.432 49.279C33.1427 47.1457 34.227 45.9819 34.6951 43.5947C35.1213 41.4151 34.6443 38.0606 35.6469 37.7029C36.2984 41.5741 40.2093 39.9465 41.1015 38.891C42.5524 38.891 42.6738 39.3812 42.9985 40.7393C43.2016 41.5895 43.4821 42.305 44.2749 43.1464C45.198 44.1335 44.9153 45.6485 42.8726 46.4368ZM25.2059 17.7153C23.7683 17.7153 22.6928 16.759 21.8183 16.017C21.37 15.6394 21.9288 14.9416 22.377 15.3214C23.2317 16.0457 24.0929 16.812 25.2059 16.812C26.5464 16.812 27.7278 15.6659 29.3289 15.0343C29.8743 14.8201 30.1857 15.6637 29.6447 15.8779C28.09 16.4896 26.8423 17.7153 25.2059 17.7153Z" fill="#E8E8E8"/></g><defs><clipPath id="clip0_3_31"><rect width="53" height="53" fill="white"/></clipPath></defs></svg>
